<svg width="317" height="63" viewBox="0 0 317 63" fill="none" xmlns="http://www.w3.org/2000/svg">
<mask id="mask0_1092_2398" style="mask-type:alpha" maskUnits="userSpaceOnUse" x="0" y="0" width="317" height="63">
<rect y="0.749023" width="317" height="61.6389" fill="#263640"/>
</mask>
<g mask="url(#mask0_1092_2398)">
<path opacity="0.05" d="M354.801 63.677C328.865 45.045 293.123 66.8177 264.796 52.0726C250.057 44.4007 247.069 37.4778 236.492 26.0333C229.709 18.6927 229.062 17.4148 222.624 12.1645C216.185 6.91425 204.509 0.843107 204.509 0.843107V-18.4033H509.339V109.812H436.599C436.599 109.812 397.747 110.417 379.142 94.5279C367.826 84.864 368.078 73.2149 354.801 63.677Z" fill="white"/>
<path opacity="0.05" d="M365.273 57.513C339.337 38.8809 303.594 65.4652 275.268 50.7201C260.529 43.0482 252.813 15.8595 248.521 7.82447C246.169 3.4217 242.577 -0.540802 236.743 -3.62275C230.91 -6.70469 214.981 -5.32095 214.981 -5.32095V-24.5674H519.81V95.597H451.599C451.599 95.597 403.766 97.138 388.199 86.0996C374.613 76.4661 378.55 67.0509 365.273 57.513Z" fill="white"/>
</g>
</svg>
