<svg width="132" height="26" viewBox="0 0 132 26" fill="none" xmlns="http://www.w3.org/2000/svg">
<path d="M7.546 25.104C6.49 25.104 5.53667 24.9793 4.686 24.73C3.83533 24.4953 3.102 24.136 2.486 23.652C1.87 23.168 1.39333 22.5667 1.056 21.848C0.733333 21.144 0.572 20.3227 0.572 19.384C0.572 19.0467 0.601333 18.6507 0.66 18.196C0.718667 17.7413 0.828667 17.228 0.99 16.656C1.15133 16.0693 1.39333 15.4167 1.716 14.698L4.422 15.644C4.26067 16.0987 4.12133 16.5167 4.004 16.898C3.88667 17.2647 3.79867 17.6093 3.74 17.932C3.68133 18.24 3.652 18.548 3.652 18.856C3.652 19.428 3.784 19.956 4.048 20.44C4.312 20.924 4.73733 21.3053 5.324 21.584C5.91067 21.8773 6.68067 22.024 7.634 22.024C8.514 22.024 9.24733 21.9213 9.834 21.716C10.4207 21.5253 10.8827 21.254 11.22 20.902C11.5573 20.5647 11.7993 20.1687 11.946 19.714C12.0927 19.2593 12.166 18.768 12.166 18.24C12.166 17.8293 12.1147 17.3673 12.012 16.854C11.924 16.3407 11.792 15.7833 11.616 15.182C11.44 14.566 11.242 13.9207 11.022 13.246L14.102 12.454C14.2487 13.0113 14.366 13.488 14.454 13.884C14.5567 14.28 14.6447 14.61 14.718 14.874C14.7913 15.1233 14.85 15.3287 14.894 15.49C15.0407 15.93 15.2167 16.2673 15.422 16.502C15.642 16.722 15.884 16.8687 16.148 16.942C16.4267 17.0153 16.7347 17.052 17.072 17.052C17.3507 17.052 17.6073 17.008 17.842 16.92C18.0767 16.832 18.2893 16.6487 18.48 16.37C18.6853 16.0767 18.8687 15.6293 19.03 15.028C19.1913 14.4267 19.338 13.598 19.47 12.542L22.374 13.004C22.3153 13.3413 22.2567 13.7007 22.198 14.082C22.1393 14.4633 22.088 14.8227 22.044 15.16C22 15.4827 21.978 15.7467 21.978 15.952C21.978 16.1427 22.0293 16.3187 22.132 16.48C22.2493 16.6413 22.4547 16.7733 22.748 16.876C23.0413 16.9787 23.4593 17.03 24.002 17.03C24.398 17.03 24.7427 16.9933 25.036 16.92C25.3293 16.832 25.5567 16.678 25.718 16.458C25.8793 16.2233 25.96 15.8933 25.96 15.468C25.96 15.1013 25.9013 14.6613 25.784 14.148C25.6667 13.62 25.5127 13.048 25.322 12.432C25.146 11.816 24.9407 11.1853 24.706 10.54L27.808 9.616C28.0427 10.2467 28.248 10.9213 28.424 11.64C28.6147 12.344 28.7613 13.0333 28.864 13.708C28.9813 14.368 29.04 14.9473 29.04 15.446C29.04 16.2233 28.9227 16.9053 28.688 17.492C28.468 18.0787 28.138 18.57 27.698 18.966C27.2727 19.3473 26.752 19.6333 26.136 19.824C25.52 20.0147 24.8307 20.11 24.068 20.11C23.5107 20.11 22.9973 20.0513 22.528 19.934C22.0733 19.802 21.6773 19.6187 21.34 19.384C21.0173 19.1493 20.768 18.8633 20.592 18.526C20.416 18.174 20.3353 17.778 20.35 17.338H21.098C20.878 18.1447 20.5773 18.746 20.196 19.142C19.8147 19.538 19.3893 19.802 18.92 19.934C18.4507 20.0513 17.974 20.11 17.49 20.11C17.1087 20.11 16.742 20.0733 16.39 20C16.038 19.9267 15.7153 19.8093 15.422 19.648C15.1433 19.472 14.9013 19.2447 14.696 18.966C14.4907 18.6727 14.3513 18.3207 14.278 17.91L15.092 18.79C15.0627 19.7873 14.8647 20.6747 14.498 21.452C14.1313 22.2293 13.618 22.8893 12.958 23.432C12.3127 23.9747 11.528 24.3853 10.604 24.664C9.69467 24.9573 8.67533 25.104 7.546 25.104ZM19.558 6.492C19.1913 6.492 18.8687 6.35267 18.59 6.074C18.326 5.79533 18.194 5.46533 18.194 5.084C18.194 4.70267 18.326 4.38 18.59 4.116C18.8687 3.852 19.1913 3.72 19.558 3.72C19.9393 3.72 20.262 3.852 20.526 4.116C20.79 4.38 20.922 4.70267 20.922 5.084C20.922 5.46533 20.79 5.79533 20.526 6.074C20.262 6.35267 19.9393 6.492 19.558 6.492ZM17.798 9.396C17.4313 9.396 17.1087 9.25667 16.83 8.978C16.566 8.69933 16.434 8.36933 16.434 7.988C16.434 7.60667 16.566 7.284 16.83 7.02C17.1087 6.756 17.4313 6.624 17.798 6.624C18.1793 6.624 18.502 6.756 18.766 7.02C19.03 7.284 19.162 7.60667 19.162 7.988C19.162 8.36933 19.03 8.69933 18.766 8.978C18.502 9.25667 18.1793 9.396 17.798 9.396ZM21.208 9.396C20.8413 9.396 20.5187 9.25667 20.24 8.978C19.976 8.69933 19.844 8.36933 19.844 7.988C19.844 7.60667 19.976 7.284 20.24 7.02C20.5187 6.756 20.8413 6.624 21.208 6.624C21.5893 6.624 21.912 6.756 22.176 7.02C22.44 7.284 22.572 7.60667 22.572 7.988C22.572 8.36933 22.44 8.69933 22.176 8.978C21.912 9.25667 21.5893 9.396 21.208 9.396ZM29.8346 25.06L28.7126 22.244C29.9739 21.804 30.9932 21.32 31.7706 20.792C32.5626 20.264 33.1419 19.6993 33.5086 19.098C33.8899 18.4967 34.0806 17.8733 34.0806 17.228C34.0806 16.8173 34.0219 16.392 33.9046 15.952C33.7872 15.4973 33.6186 15.0207 33.3986 14.522C33.1932 14.0233 32.9439 13.5027 32.6506 12.96L35.5326 11.574C36.0459 12.5567 36.4419 13.4953 36.7206 14.39C37.0139 15.2847 37.1606 16.1207 37.1606 16.898C37.1606 17.6167 37.0652 18.306 36.8746 18.966C36.6986 19.626 36.4199 20.242 36.0386 20.814C35.6719 21.4007 35.1952 21.9507 34.6086 22.464C34.0219 22.9773 33.3326 23.4467 32.5406 23.872C31.7486 24.312 30.8466 24.708 29.8346 25.06ZM44.7985 20.11C43.4345 20.11 42.3785 19.9707 41.6305 19.692C40.8972 19.4133 40.3839 18.9807 40.0905 18.394C39.7972 17.7927 39.6285 17.0373 39.5845 16.128L39.1225 3.896H42.2025L42.6645 14.654C42.6939 15.3287 42.7672 15.8347 42.8845 16.172C43.0019 16.5093 43.2219 16.7367 43.5445 16.854C43.8819 16.9713 44.3732 17.03 45.0185 17.03C45.5759 17.03 45.9719 17.1767 46.2065 17.47C46.4559 17.7487 46.5805 18.1007 46.5805 18.526C46.5805 18.9807 46.4265 19.362 46.1185 19.67C45.8105 19.9633 45.3705 20.11 44.7985 20.11ZM44.1684 20.11L44.3884 17.03C44.9164 17.03 45.3711 16.9787 45.7524 16.876C46.1338 16.7733 46.4564 16.568 46.7204 16.26C46.9844 15.9373 47.2044 15.468 47.3804 14.852C47.5711 14.236 47.7398 13.4147 47.8864 12.388L50.7684 12.872C50.7391 13.092 50.6951 13.3487 50.6364 13.642C50.5924 13.9353 50.5484 14.236 50.5044 14.544C50.4751 14.8373 50.4604 15.116 50.4604 15.38C50.4604 15.644 50.5118 15.8787 50.6144 16.084C50.7171 16.2893 50.8784 16.4653 51.0984 16.612C51.3331 16.744 51.6338 16.8467 52.0004 16.92C52.3818 16.9933 52.8438 17.03 53.3864 17.03C53.9438 17.03 54.3398 17.1767 54.5744 17.47C54.8091 17.7487 54.9264 18.1007 54.9264 18.526C54.9264 18.9807 54.7724 19.362 54.4644 19.67C54.1711 19.9633 53.7384 20.11 53.1664 20.11C52.5064 20.11 51.9051 20.0587 51.3624 19.956C50.8344 19.8533 50.3724 19.6847 49.9764 19.45C49.5951 19.2007 49.2798 18.878 49.0304 18.482C48.7958 18.0713 48.6491 17.5727 48.5904 16.986H49.6464C49.3824 17.69 49.0451 18.2547 48.6344 18.68C48.2384 19.0907 47.7911 19.3987 47.2924 19.604C46.7938 19.8093 46.2731 19.9413 45.7304 20C45.2024 20.0733 44.6818 20.11 44.1684 20.11ZM50.3064 25.214C49.8811 25.214 49.5144 25.06 49.2064 24.752C48.9131 24.4587 48.7664 24.1067 48.7664 23.696C48.7664 23.2707 48.9131 22.904 49.2064 22.596C49.5144 22.288 49.8811 22.134 50.3064 22.134C50.7171 22.134 51.0691 22.288 51.3624 22.596C51.6558 22.904 51.8024 23.2707 51.8024 23.696C51.8024 24.1067 51.6558 24.4587 51.3624 24.752C51.0691 25.06 50.7171 25.214 50.3064 25.214ZM46.5004 25.214C46.0751 25.214 45.7084 25.06 45.4004 24.752C45.1071 24.4587 44.9604 24.1067 44.9604 23.696C44.9604 23.2707 45.1071 22.904 45.4004 22.596C45.7084 22.288 46.0751 22.134 46.5004 22.134C46.9111 22.134 47.2631 22.288 47.5564 22.596C47.8498 22.904 47.9964 23.2707 47.9964 23.696C47.9964 24.1067 47.8498 24.4587 47.5564 24.752C47.2631 25.06 46.9111 25.214 46.5004 25.214ZM52.5104 20.11L52.7304 17.03H55.8764C56.1844 17.03 56.4557 17.0153 56.6904 16.986C56.9251 16.942 57.1157 16.876 57.2624 16.788C57.4237 16.7 57.5411 16.59 57.6144 16.458C57.6877 16.326 57.7244 16.172 57.7244 15.996C57.7244 15.82 57.6291 15.5413 57.4384 15.16C57.2624 14.764 56.8737 14.2873 56.2724 13.73C55.9497 13.4367 55.5977 13.1287 55.2164 12.806C54.8497 12.4687 54.4977 12.1533 54.1604 11.86C53.8231 11.552 53.5444 11.2807 53.3244 11.046C53.1044 10.8113 52.9944 10.6427 52.9944 10.54C52.9944 10.32 53.0091 10.078 53.0384 9.814C53.0677 9.55 53.1117 9.308 53.1704 9.088C53.2437 8.868 53.3391 8.70667 53.4564 8.604C53.7057 8.36933 54.0724 8.098 54.5564 7.79C55.0551 7.46733 55.6491 7.12267 56.3384 6.756C57.0277 6.37467 57.7977 5.97867 58.6484 5.568C59.5137 5.14267 60.4377 4.71733 61.4204 4.292L62.6744 6.976C61.8677 7.328 61.1051 7.67267 60.3864 8.01C59.6677 8.33267 58.9931 8.65533 58.3624 8.978C57.7464 9.286 57.1744 9.594 56.6464 9.902C56.1331 10.1953 55.6784 10.4887 55.2824 10.782L55.5684 9.154C56.8151 10.1073 57.8051 10.9653 58.5384 11.728C59.2864 12.4907 59.8437 13.1727 60.2104 13.774C60.5771 14.3607 60.8191 14.8887 60.9364 15.358C61.0537 15.8127 61.1124 16.216 61.1124 16.568C61.1124 16.92 61.0244 17.3013 60.8484 17.712C60.6871 18.108 60.3864 18.4893 59.9464 18.856C59.5211 19.2227 58.9197 19.5233 58.1424 19.758C57.3651 19.9927 56.3677 20.11 55.1504 20.11H52.5104ZM67.1022 19.384C67.1022 19.0467 67.1316 18.6507 67.1902 18.196C67.2489 17.7413 67.3589 17.228 67.5202 16.656C67.6816 16.0693 67.9236 15.4167 68.2462 14.698L70.9522 15.644C70.7909 16.0987 70.6516 16.5167 70.5342 16.898C70.4169 17.2647 70.3289 17.6093 70.2702 17.932C70.2116 18.24 70.1822 18.548 70.1822 18.856C70.1822 19.516 70.3436 20.088 70.6662 20.572C71.0036 21.0707 71.4582 21.452 72.0302 21.716C72.6169 21.9947 73.2916 22.134 74.0542 22.134C75.3009 22.134 76.2542 21.9287 76.9142 21.518C77.5889 21.122 78.0436 20.4913 78.2782 19.626C78.5276 18.746 78.6229 17.6093 78.5642 16.216L78.1242 3.896H81.2262L81.5562 14.302C81.5856 15.0353 81.6882 15.6 81.8642 15.996C82.0402 16.392 82.3116 16.6633 82.6782 16.81C83.0596 16.9567 83.5509 17.03 84.1522 17.03C84.7096 17.03 85.1056 17.1767 85.3402 17.47C85.5749 17.7487 85.6922 18.1007 85.6922 18.526C85.6922 18.9807 85.5382 19.362 85.2302 19.67C84.9222 19.9633 84.4896 20.11 83.9322 20.11C83.6096 20.11 83.2649 20.066 82.8982 19.978C82.5316 19.89 82.1796 19.7507 81.8422 19.56C81.5049 19.3693 81.2116 19.12 80.9622 18.812C80.7129 18.4893 80.5442 18.0933 80.4562 17.624L81.6442 17.03C81.6442 18.5113 81.4682 19.7653 81.1162 20.792C80.7789 21.8187 80.2802 22.6473 79.6202 23.278C78.9749 23.9087 78.1756 24.3633 77.2222 24.642C76.2836 24.9353 75.1982 25.082 73.9662 25.082C73.0276 25.082 72.1402 24.9647 71.3042 24.73C70.4829 24.4953 69.7569 24.1433 69.1262 23.674C68.4956 23.2047 67.9969 22.6107 67.6302 21.892C67.2782 21.188 67.1022 20.352 67.1022 19.384ZM83.2726 20.11L83.4926 17.03C84.0206 17.03 84.4752 16.9787 84.8566 16.876C85.2379 16.7733 85.5606 16.568 85.8246 16.26C86.0886 15.9373 86.3086 15.468 86.4846 14.852C86.6752 14.236 86.8439 13.4147 86.9906 12.388L89.8726 12.872C89.8432 13.092 89.7992 13.3487 89.7406 13.642C89.6966 13.9353 89.6526 14.236 89.6086 14.544C89.5792 14.8373 89.5646 15.116 89.5646 15.38C89.5646 15.644 89.6159 15.8787 89.7186 16.084C89.8212 16.2893 89.9826 16.4653 90.2026 16.612C90.4372 16.744 90.7379 16.8467 91.1046 16.92C91.4859 16.9933 91.9479 17.03 92.4906 17.03C93.0479 17.03 93.4439 17.1767 93.6786 17.47C93.9132 17.7487 94.0306 18.1007 94.0306 18.526C94.0306 18.9807 93.8766 19.362 93.5686 19.67C93.2752 19.9633 92.8426 20.11 92.2706 20.11C91.6106 20.11 91.0092 20.0587 90.4666 19.956C89.9386 19.8533 89.4766 19.6847 89.0806 19.45C88.6992 19.2007 88.3839 18.878 88.1346 18.482C87.8999 18.0713 87.7532 17.5727 87.6946 16.986H88.7506C88.4866 17.69 88.1492 18.2547 87.7386 18.68C87.3426 19.0907 86.8952 19.3987 86.3966 19.604C85.8979 19.8093 85.3772 19.9413 84.8346 20C84.3066 20.0733 83.7859 20.11 83.2726 20.11ZM90.3346 10.408C89.9092 10.408 89.5426 10.2613 89.2346 9.968C88.9412 9.66 88.7946 9.30067 88.7946 8.89C88.7946 8.46467 88.9412 8.098 89.2346 7.79C89.5426 7.482 89.9092 7.328 90.3346 7.328C90.7452 7.328 91.0972 7.482 91.3906 7.79C91.6839 8.098 91.8306 8.46467 91.8306 8.89C91.8306 9.30067 91.6839 9.66 91.3906 9.968C91.0972 10.2613 90.7452 10.408 90.3346 10.408ZM86.5286 10.386C86.1032 10.386 85.7366 10.2393 85.4286 9.946C85.1352 9.638 84.9886 9.27867 84.9886 8.868C84.9886 8.44267 85.1352 8.076 85.4286 7.768C85.7366 7.46 86.1032 7.306 86.5286 7.306C86.9392 7.306 87.2912 7.46 87.5846 7.768C87.8779 8.076 88.0246 8.44267 88.0246 8.868C88.0246 9.27867 87.8779 9.638 87.5846 9.946C87.2912 10.2393 86.9392 10.386 86.5286 10.386ZM100.569 20.176C99.9085 20.176 99.2265 20.0953 98.5225 19.934C97.8332 19.7727 97.1659 19.5307 96.5205 19.208C95.8752 18.8853 95.2959 18.482 94.7825 17.998C94.2692 17.514 93.8585 16.9567 93.5505 16.326C93.2572 15.6807 93.1105 14.9547 93.1105 14.148C93.1105 13.488 93.2499 12.8793 93.5285 12.322C93.8072 11.7647 94.2179 11.3173 94.7605 10.98C95.3179 10.628 95.9925 10.452 96.7845 10.452C97.5325 10.452 98.1779 10.6353 98.7205 11.002C99.2779 11.354 99.7105 11.816 100.019 12.388C100.327 12.9453 100.481 13.532 100.481 14.148C100.481 15.1307 100.239 15.996 99.7545 16.744C99.2705 17.4773 98.6032 18.0933 97.7525 18.592C96.9165 19.0907 95.9705 19.472 94.9145 19.736C93.8585 19.9853 92.7585 20.11 91.6145 20.11L91.8345 17.03C92.6705 17.03 93.3965 17.008 94.0125 16.964C94.6432 16.92 95.1859 16.8247 95.6405 16.678C96.0952 16.5313 96.4912 16.3113 96.8285 16.018C97.1659 15.7247 97.4225 15.402 97.5985 15.05C97.7892 14.6833 97.8845 14.324 97.8845 13.972C97.8845 13.7373 97.8479 13.5173 97.7745 13.312C97.7159 13.1067 97.6132 12.938 97.4665 12.806C97.3345 12.6593 97.1585 12.586 96.9385 12.586C96.7039 12.586 96.5059 12.6593 96.3445 12.806C96.1979 12.938 96.0805 13.114 95.9925 13.334C95.9192 13.554 95.8825 13.7887 95.8825 14.038C95.8825 14.5513 96.0145 15.0133 96.2785 15.424C96.5572 15.8347 96.9239 16.1793 97.3785 16.458C97.8332 16.7367 98.3319 16.9493 98.8745 17.096C99.4319 17.2427 99.9965 17.316 100.569 17.316C101.023 17.316 101.346 17.2427 101.537 17.096C101.727 16.9493 101.823 16.7513 101.823 16.502C101.823 16.326 101.779 16.1427 101.691 15.952C101.617 15.7467 101.449 15.4973 101.185 15.204C100.921 14.9107 100.517 14.5513 99.9745 14.126C99.4319 13.686 98.7059 13.1433 97.7965 12.498C96.8872 11.8527 95.7432 11.068 94.3645 10.144L96.0585 7.746C97.6132 8.846 98.9112 9.80667 99.9525 10.628C101.009 11.4493 101.859 12.168 102.505 12.784C103.15 13.4 103.641 13.9427 103.979 14.412C104.331 14.8667 104.565 15.2847 104.683 15.666C104.8 16.0473 104.859 16.4287 104.859 16.81C104.859 17.514 104.69 18.1153 104.353 18.614C104.015 19.1127 103.524 19.5013 102.879 19.78C102.248 20.044 101.478 20.176 100.569 20.176Z" fill="#232E26"/>
<path d="M123.893 2.42578C123.542 1.57662 122.328 1.6106 122.025 2.47806L119.549 9.56706C119.263 10.3861 118.141 10.4773 117.727 9.71522L115.362 5.36916C114.954 4.61925 113.855 4.69245 113.55 5.48981L108.519 18.6428C108.269 19.2975 108.752 20 109.453 20H129.662C130.375 20 130.859 19.2763 130.587 18.618L123.893 2.42578Z" fill="#232E26"/>
</svg>
