<svg width="132" height="26" viewBox="0 0 132 26" fill="none" xmlns="http://www.w3.org/2000/svg">
<path d="M4.906 20.066C4.08467 20.066 3.344 19.9267 2.684 19.648C2.03867 19.3547 1.52533 18.922 1.144 18.35C0.777333 17.7633 0.594 17.0373 0.594 16.172C0.594 15.3067 0.887333 14.346 1.474 13.29C2.06067 12.2193 3.04333 11.1487 4.422 10.078L4.202 12.102L2.222 10.562L4.29 8.032C5.40467 8.88267 6.358 9.71133 7.15 10.518C7.95667 11.31 8.57267 12.124 8.998 12.96C9.42333 13.796 9.636 14.6833 9.636 15.622C9.636 16.0767 9.56267 16.568 9.416 17.096C9.26933 17.6093 9.02 18.0933 8.668 18.548C8.316 18.988 7.832 19.3547 7.216 19.648C6.61467 19.9267 5.84467 20.066 4.906 20.066ZM5.148 17.03C5.51467 17.03 5.808 16.9567 6.028 16.81C6.26267 16.6633 6.43867 16.4727 6.556 16.238C6.67333 16.0033 6.732 15.754 6.732 15.49C6.732 15.226 6.67333 14.94 6.556 14.632C6.43867 14.324 6.21133 13.9793 5.874 13.598C5.53667 13.2167 5.038 12.7767 4.378 12.278L6.05 12.058C5.44867 12.4687 4.96467 12.8867 4.598 13.312C4.23133 13.7373 3.96733 14.148 3.806 14.544C3.65933 14.9253 3.586 15.2773 3.586 15.6C3.586 16.0693 3.74 16.4287 4.048 16.678C4.356 16.9127 4.72267 17.03 5.148 17.03ZM10.4655 19.12L11.5435 16.326C12.0861 16.5607 12.6068 16.7367 13.1055 16.854C13.6041 16.9713 14.1028 17.03 14.6015 17.03C15.1148 17.03 15.5401 16.986 15.8775 16.898C16.2295 16.7953 16.4935 16.6487 16.6695 16.458C16.8455 16.2673 16.9335 16.04 16.9335 15.776C16.9335 15.5267 16.8528 15.182 16.6915 14.742C16.5448 14.302 16.2735 13.73 15.8775 13.026C15.4815 12.3073 14.9021 11.42 14.1395 10.364L16.7575 8.626C17.4615 9.62333 18.0701 10.5987 18.5835 11.552C19.0968 12.4907 19.4928 13.3707 19.7715 14.192C20.0648 14.9987 20.2115 15.71 20.2115 16.326C20.2115 17.0887 20.0061 17.756 19.5955 18.328C19.1995 18.8853 18.6055 19.3253 17.8135 19.648C17.0361 19.9707 16.0755 20.132 14.9315 20.132C14.5061 20.132 14.0295 20.0953 13.5015 20.022C12.9735 19.9487 12.4381 19.8387 11.8955 19.692C11.3675 19.5453 10.8908 19.3547 10.4655 19.12ZM22.1607 20L21.6987 3.896H24.7787L25.2407 20H22.1607ZM25.5497 25.082L24.4277 22.354C25.2051 22.09 25.9164 21.782 26.5617 21.43C27.2217 21.078 27.7937 20.6893 28.2777 20.264C28.7617 19.8387 29.1357 19.3767 29.3997 18.878C29.6637 18.3647 29.7957 17.8147 29.7957 17.228C29.7957 16.612 29.6564 15.9373 29.3777 15.204C29.0991 14.4707 28.7617 13.7227 28.3657 12.96L31.2477 11.574C31.5117 12.0287 31.7391 12.52 31.9297 13.048C32.1351 13.5613 32.3037 14.0233 32.4357 14.434C32.5677 14.8447 32.6557 15.1233 32.6997 15.27C32.9051 15.974 33.1837 16.4433 33.5357 16.678C33.9024 16.9127 34.4891 17.03 35.2957 17.03C35.8531 17.03 36.2491 17.1767 36.4837 17.47C36.7331 17.7487 36.8577 18.1007 36.8577 18.526C36.8577 18.9807 36.7037 19.362 36.3957 19.67C36.0877 19.9633 35.6477 20.11 35.0757 20.11C34.4744 20.11 33.9464 20.022 33.4917 19.846C33.0371 19.67 32.6704 19.4133 32.3917 19.076C32.1277 18.7387 31.9591 18.3427 31.8857 17.888L32.6997 18.35C32.6117 19.1273 32.3551 19.8607 31.9297 20.55C31.5191 21.254 30.9837 21.8993 30.3237 22.486C29.6637 23.0727 28.9231 23.586 28.1017 24.026C27.2804 24.466 26.4297 24.818 25.5497 25.082ZM30.0377 9.33C29.5831 9.33 29.1944 9.176 28.8717 8.868C28.5637 8.56 28.4097 8.17867 28.4097 7.724C28.4097 7.26933 28.5637 6.88067 28.8717 6.558C29.1944 6.23533 29.5831 6.074 30.0377 6.074C30.4777 6.074 30.8517 6.23533 31.1597 6.558C31.4824 6.88067 31.6437 7.26933 31.6437 7.724C31.6437 8.17867 31.4824 8.56 31.1597 8.868C30.8517 9.176 30.4777 9.33 30.0377 9.33ZM34.442 20.11L34.662 17.03C35.19 17.03 35.6447 16.9787 36.026 16.876C36.4074 16.7733 36.73 16.568 36.994 16.26C37.258 15.9373 37.478 15.468 37.654 14.852C37.8447 14.236 38.0134 13.4147 38.16 12.388L41.042 12.872C41.0127 13.092 40.9687 13.3487 40.91 13.642C40.866 13.9353 40.822 14.236 40.778 14.544C40.7487 14.8373 40.734 15.116 40.734 15.38C40.734 15.644 40.7854 15.8787 40.888 16.084C40.9907 16.2893 41.152 16.4653 41.372 16.612C41.6067 16.744 41.9074 16.8467 42.274 16.92C42.6554 16.9933 43.1174 17.03 43.66 17.03C44.2174 17.03 44.6134 17.1767 44.848 17.47C45.0827 17.7487 45.2 18.1007 45.2 18.526C45.2 18.9807 45.046 19.362 44.738 19.67C44.4447 19.9633 44.012 20.11 43.44 20.11C42.78 20.11 42.1787 20.0587 41.636 19.956C41.108 19.8533 40.646 19.6847 40.25 19.45C39.8687 19.2007 39.5534 18.878 39.304 18.482C39.0694 18.0713 38.9227 17.5727 38.864 16.986H39.92C39.656 17.69 39.3187 18.2547 38.908 18.68C38.512 19.0907 38.0647 19.3987 37.566 19.604C37.0674 19.8093 36.5467 19.9413 36.004 20C35.476 20.0733 34.9554 20.11 34.442 20.11ZM40.58 25.214C40.1547 25.214 39.788 25.06 39.48 24.752C39.1867 24.4587 39.04 24.1067 39.04 23.696C39.04 23.2707 39.1867 22.904 39.48 22.596C39.788 22.288 40.1547 22.134 40.58 22.134C40.9907 22.134 41.3427 22.288 41.636 22.596C41.9294 22.904 42.076 23.2707 42.076 23.696C42.076 24.1067 41.9294 24.4587 41.636 24.752C41.3427 25.06 40.9907 25.214 40.58 25.214ZM36.774 25.214C36.3487 25.214 35.982 25.06 35.674 24.752C35.3807 24.4587 35.234 24.1067 35.234 23.696C35.234 23.2707 35.3807 22.904 35.674 22.596C35.982 22.288 36.3487 22.134 36.774 22.134C37.1847 22.134 37.5367 22.288 37.83 22.596C38.1234 22.904 38.27 23.2707 38.27 23.696C38.27 24.1067 38.1234 24.4587 37.83 24.752C37.5367 25.06 37.1847 25.214 36.774 25.214ZM42.784 20.11L43.004 17.03C43.6933 17.03 44.1773 16.964 44.456 16.832C44.7493 16.6853 44.9253 16.4213 44.984 16.04C45.0427 15.644 45.0573 15.072 45.028 14.324L44.676 3.896H47.8L48.174 14.302C48.2033 15.0353 48.2913 15.6 48.438 15.996C48.5847 16.392 48.8267 16.6633 49.164 16.81C49.516 16.9567 49.9853 17.03 50.572 17.03C51.1293 17.03 51.5253 17.1767 51.76 17.47C51.9947 17.7487 52.112 18.1007 52.112 18.526C52.112 18.9807 51.958 19.362 51.65 19.67C51.342 19.9633 50.9093 20.11 50.352 20.11C49.7067 20.11 49.1053 20.0367 48.548 19.89C47.9907 19.7433 47.5287 19.4647 47.162 19.054C46.7953 18.6433 46.5533 18.0493 46.436 17.272L47.404 17.294C47.1547 18.0567 46.832 18.6433 46.436 19.054C46.04 19.45 45.5413 19.7287 44.94 19.89C44.3533 20.0367 43.6347 20.11 42.784 20.11ZM49.6865 20.11L49.9065 17.03C50.5958 17.03 51.1238 17.0227 51.4905 17.008C51.8718 16.9933 52.1578 16.9787 52.3485 16.964C52.5392 16.9347 52.7005 16.9127 52.8325 16.898C52.6858 16.7513 52.4952 16.5387 52.2605 16.26C52.0258 15.9813 51.8132 15.622 51.6225 15.182C51.4465 14.742 51.3585 14.214 51.3585 13.598C51.3585 12.7033 51.5858 11.9187 52.0405 11.244C52.5098 10.5693 53.1405 10.0413 53.9325 9.66C54.7245 9.27867 55.6118 9.088 56.5945 9.088C57.0638 9.088 57.4965 9.11733 57.8925 9.176C58.3032 9.23467 58.7138 9.32267 59.1245 9.44L58.6405 12.366C58.3472 12.2927 58.0392 12.234 57.7165 12.19C57.3938 12.146 57.1078 12.124 56.8585 12.124C56.3745 12.124 55.9492 12.2047 55.5825 12.366C55.2305 12.5127 54.9518 12.7253 54.7465 13.004C54.5558 13.268 54.4605 13.5907 54.4605 13.972C54.4605 14.2213 54.5045 14.456 54.5925 14.676C54.6952 14.896 54.8198 15.094 54.9665 15.27C55.1132 15.446 55.2745 15.6 55.4505 15.732C55.6265 15.864 55.7952 15.974 55.9565 16.062C56.1325 16.1353 56.2792 16.1867 56.3965 16.216C56.7632 16.1133 57.0785 16.0253 57.3425 15.952C57.6212 15.864 57.8852 15.7833 58.1345 15.71C58.3985 15.622 58.6845 15.512 58.9925 15.38C59.3005 15.248 59.6818 15.0867 60.1365 14.896L61.1265 17.8C59.8945 18.4013 58.6918 18.8707 57.5185 19.208C56.3452 19.5453 55.1278 19.78 53.8665 19.912C52.6052 20.044 51.2118 20.11 49.6865 20.11ZM66.5342 19.384C66.5342 19.0467 66.5635 18.6507 66.6222 18.196C66.6809 17.7413 66.7909 17.228 66.9522 16.656C67.1135 16.0693 67.3555 15.4167 67.6782 14.698L70.3842 15.644C70.2229 16.0987 70.0835 16.5167 69.9662 16.898C69.8489 17.2647 69.7609 17.6093 69.7022 17.932C69.6435 18.24 69.6142 18.548 69.6142 18.856C69.6142 19.516 69.7755 20.088 70.0982 20.572C70.4355 21.0707 70.8902 21.452 71.4622 21.716C72.0489 21.9947 72.7235 22.134 73.4862 22.134C74.7329 22.134 75.6862 21.9287 76.3462 21.518C77.0209 21.122 77.4755 20.4913 77.7102 19.626C77.9595 18.746 78.0549 17.6093 77.9962 16.216L77.5562 3.896H80.6582L80.9882 14.302C81.0175 15.0353 81.1202 15.6 81.2962 15.996C81.4722 16.392 81.7435 16.6633 82.1102 16.81C82.4915 16.9567 82.9829 17.03 83.5842 17.03C84.1415 17.03 84.5375 17.1767 84.7722 17.47C85.0069 17.7487 85.1242 18.1007 85.1242 18.526C85.1242 18.9807 84.9702 19.362 84.6622 19.67C84.3542 19.9633 83.9215 20.11 83.3642 20.11C83.0415 20.11 82.6969 20.066 82.3302 19.978C81.9635 19.89 81.6115 19.7507 81.2742 19.56C80.9369 19.3693 80.6435 19.12 80.3942 18.812C80.1449 18.4893 79.9762 18.0933 79.8882 17.624L81.0762 17.03C81.0762 18.5113 80.9002 19.7653 80.5482 20.792C80.2109 21.8187 79.7122 22.6473 79.0522 23.278C78.4069 23.9087 77.6075 24.3633 76.6542 24.642C75.7155 24.9353 74.6302 25.082 73.3982 25.082C72.4595 25.082 71.5722 24.9647 70.7362 24.73C69.9149 24.4953 69.1889 24.1433 68.5582 23.674C67.9275 23.2047 67.4289 22.6107 67.0622 21.892C66.7102 21.188 66.5342 20.352 66.5342 19.384ZM82.7045 20.11L82.9245 17.03C83.4525 17.03 83.9072 16.9787 84.2885 16.876C84.6699 16.7733 84.9925 16.568 85.2565 16.26C85.5205 15.9373 85.7405 15.468 85.9165 14.852C86.1072 14.236 86.2759 13.4147 86.4225 12.388L89.3045 12.872C89.2752 13.092 89.2312 13.3487 89.1725 13.642C89.1285 13.9353 89.0845 14.236 89.0405 14.544C89.0112 14.8373 88.9965 15.116 88.9965 15.38C88.9965 15.644 89.0479 15.8787 89.1505 16.084C89.2532 16.2893 89.4145 16.4653 89.6345 16.612C89.8692 16.744 90.1699 16.8467 90.5365 16.92C90.9179 16.9933 91.3799 17.03 91.9225 17.03C92.4799 17.03 92.8759 17.1767 93.1105 17.47C93.3452 17.7487 93.4625 18.1007 93.4625 18.526C93.4625 18.9807 93.3085 19.362 93.0005 19.67C92.7072 19.9633 92.2745 20.11 91.7025 20.11C91.0425 20.11 90.4412 20.0587 89.8985 19.956C89.3705 19.8533 88.9085 19.6847 88.5125 19.45C88.1312 19.2007 87.8159 18.878 87.5665 18.482C87.3319 18.0713 87.1852 17.5727 87.1265 16.986H88.1825C87.9185 17.69 87.5812 18.2547 87.1705 18.68C86.7745 19.0907 86.3272 19.3987 85.8285 19.604C85.3299 19.8093 84.8092 19.9413 84.2665 20C83.7385 20.0733 83.2179 20.11 82.7045 20.11ZM89.7665 10.408C89.3412 10.408 88.9745 10.2613 88.6665 9.968C88.3732 9.66 88.2265 9.30067 88.2265 8.89C88.2265 8.46467 88.3732 8.098 88.6665 7.79C88.9745 7.482 89.3412 7.328 89.7665 7.328C90.1772 7.328 90.5292 7.482 90.8225 7.79C91.1159 8.098 91.2625 8.46467 91.2625 8.89C91.2625 9.30067 91.1159 9.66 90.8225 9.968C90.5292 10.2613 90.1772 10.408 89.7665 10.408ZM85.9605 10.386C85.5352 10.386 85.1685 10.2393 84.8605 9.946C84.5672 9.638 84.4205 9.27867 84.4205 8.868C84.4205 8.44267 84.5672 8.076 84.8605 7.768C85.1685 7.46 85.5352 7.306 85.9605 7.306C86.3712 7.306 86.7232 7.46 87.0165 7.768C87.3099 8.076 87.4565 8.44267 87.4565 8.868C87.4565 9.27867 87.3099 9.638 87.0165 9.946C86.7232 10.2393 86.3712 10.386 85.9605 10.386ZM100 20.176C99.3405 20.176 98.6585 20.0953 97.9545 19.934C97.2652 19.7727 96.5978 19.5307 95.9525 19.208C95.3072 18.8853 94.7278 18.482 94.2145 17.998C93.7012 17.514 93.2905 16.9567 92.9825 16.326C92.6892 15.6807 92.5425 14.9547 92.5425 14.148C92.5425 13.488 92.6818 12.8793 92.9605 12.322C93.2392 11.7647 93.6498 11.3173 94.1925 10.98C94.7498 10.628 95.4245 10.452 96.2165 10.452C96.9645 10.452 97.6098 10.6353 98.1525 11.002C98.7098 11.354 99.1425 11.816 99.4505 12.388C99.7585 12.9453 99.9125 13.532 99.9125 14.148C99.9125 15.1307 99.6705 15.996 99.1865 16.744C98.7025 17.4773 98.0352 18.0933 97.1845 18.592C96.3485 19.0907 95.4025 19.472 94.3465 19.736C93.2905 19.9853 92.1905 20.11 91.0465 20.11L91.2665 17.03C92.1025 17.03 92.8285 17.008 93.4445 16.964C94.0752 16.92 94.6178 16.8247 95.0725 16.678C95.5272 16.5313 95.9232 16.3113 96.2605 16.018C96.5978 15.7247 96.8545 15.402 97.0305 15.05C97.2212 14.6833 97.3165 14.324 97.3165 13.972C97.3165 13.7373 97.2798 13.5173 97.2065 13.312C97.1478 13.1067 97.0452 12.938 96.8985 12.806C96.7665 12.6593 96.5905 12.586 96.3705 12.586C96.1358 12.586 95.9378 12.6593 95.7765 12.806C95.6298 12.938 95.5125 13.114 95.4245 13.334C95.3512 13.554 95.3145 13.7887 95.3145 14.038C95.3145 14.5513 95.4465 15.0133 95.7105 15.424C95.9892 15.8347 96.3558 16.1793 96.8105 16.458C97.2652 16.7367 97.7638 16.9493 98.3065 17.096C98.8638 17.2427 99.4285 17.316 100 17.316C100.455 17.316 100.778 17.2427 100.968 17.096C101.159 16.9493 101.254 16.7513 101.254 16.502C101.254 16.326 101.21 16.1427 101.122 15.952C101.049 15.7467 100.88 15.4973 100.616 15.204C100.352 14.9107 99.9492 14.5513 99.4065 14.126C98.8638 13.686 98.1378 13.1433 97.2285 12.498C96.3192 11.8527 95.1752 11.068 93.7965 10.144L95.4905 7.746C97.0452 8.846 98.3432 9.80667 99.3845 10.628C100.44 11.4493 101.291 12.168 101.936 12.784C102.582 13.4 103.073 13.9427 103.41 14.412C103.762 14.8667 103.997 15.2847 104.114 15.666C104.232 16.0473 104.29 16.4287 104.29 16.81C104.29 17.514 104.122 18.1153 103.784 18.614C103.447 19.1127 102.956 19.5013 102.31 19.78C101.68 20.044 100.91 20.176 100 20.176Z" fill="#232E26"/>
<path d="M123.893 2.42578C123.542 1.57662 122.328 1.6106 122.025 2.47806L119.549 9.56706C119.263 10.3861 118.141 10.4773 117.727 9.71522L115.362 5.36916C114.954 4.61925 113.855 4.69245 113.55 5.48981L108.519 18.6428C108.269 19.2975 108.752 20 109.453 20H129.662C130.375 20 130.859 19.2763 130.587 18.618L123.893 2.42578Z" fill="#232E26"/>
</svg>
