<svg width="371" height="350" viewBox="0 0 371 350" fill="none" xmlns="http://www.w3.org/2000/svg">
<g clip-path="url(#clip0_414_2655)">
<path d="M219.05 532.267L368.285 566.425C431.274 580.842 494.023 541.467 508.44 478.478L531.198 379.05C545.615 316.061 506.24 253.312 443.252 238.894L294.017 204.737C231.028 190.32 168.279 229.695 153.862 292.683L131.104 392.112C116.687 455.101 156.062 517.85 219.05 532.267Z" fill="url(#paint0_linear_414_2655)"/>
<path opacity="0.28" d="M359.015 273.316L425.9 157.468C461.799 95.2901 440.495 15.7833 378.317 -20.1152L262.469 -87.0002C200.29 -122.899 120.784 -101.595 84.8852 -39.4169L18.0002 76.4313C-17.8983 138.609 3.40547 218.116 65.5835 254.015L181.432 320.9C243.61 356.798 323.117 335.494 359.015 273.316Z" fill="#232E26"/>
</g>
<defs>
<linearGradient id="paint0_linear_414_2655" x1="293.668" y1="549.346" x2="368.634" y2="221.816" gradientUnits="userSpaceOnUse">
<stop offset="0.229167" stop-color="#3C4D41"/>
<stop offset="1" stop-color="#232E26"/>
</linearGradient>
<clipPath id="clip0_414_2655">
<rect width="371" height="350" fill="white"/>
</clipPath>
</defs>
</svg>
